<?xml version="1.0" encoding="UTF-8"?>
<svg id="Layer_1" xmlns="http://www.w3.org/2000/svg" version="1.1" viewBox="0 0 452.6 83">
  <!-- Generator: Adobe Illustrator 30.6.0, SVG Export Plug-In . SVG Version: 2.1.4 Build 109)  -->
  <g isolation="isolate">
    <g isolation="isolate">
      <path d="M5.6,29.8c0-1.4-.7-2-2-2H0v-9.7h10.9c4.2,0,6,1.9,6,6v21.2c0,5.6,1.4,9.4,7.1,9.4,8.3,0,12.9-7.3,12.9-15.5v-21.1h11.5v34.4c0,1.3.7,2,2,2h3.6v9.7h-10.6c-4,0-6-1.9-6-5.1v-1.3c0-1.1,0-2.1,0-2.1h-.2c-2.2,4.8-7.9,9.6-15.9,9.6s-15.9-5-15.9-17.5v-17.9Z"/>
      <path d="M67,73.4c3.2,0,6-1.9,7.6-5.9l1.5-3.5-15.3-34.6c-.5-1.4-1.2-1.6-2.4-1.6h-1.4v-9.7h7.6c3.2,0,4.9,1.2,6,4.3l9,23c.9,2.3,1.6,6.1,1.6,6.1h.2s.7-3.8,1.5-6.1l7.9-23c1.1-3.2,3-4.3,6.1-4.3h7.8v9.7h-1.4c-1.4,0-2.1.3-2.6,1.6l-16.5,41.6c-3.2,8.3-9.7,12-16.6,12s-11.6-4.7-11.6-4.7l4.4-8.1s2.8,3.2,6.6,3.2Z"/>
      <path d="M128.2,17c10.6,0,14.2,6.5,14.2,6.5h.2v-1.2c0-2.1,1.4-4.2,5.1-4.2h10.7v9.7h-3.5c-1.2,0-2,.6-2,1.8v31.7c0,15.8-12.3,21.8-24.3,21.8s-11.9-1.6-16.3-4l3.5-9s5.7,3.1,12.7,3.1,13-3,13-11.3v-2.2c0-1.1,0-2.4,0-2.4h-.2c-2.7,3.9-6.7,6-12.8,6-13.2,0-20.7-10.7-20.7-23.3s7.1-22.9,20.4-22.9ZM141.6,40c0-10.5-5.2-13.3-11.5-13.3s-10.7,5.1-10.7,12.8,4.1,14,11.5,14,10.7-3.2,10.7-13.5Z"/>
      <path d="M167.4,29.8c0-1.4-.7-2-2-2h-3.6v-9.7h10.9c4.2,0,6,1.9,6,6v21.2c0,5.6,1.4,9.4,7.1,9.4,8.3,0,12.9-7.3,12.9-15.5v-21.1h11.5v34.4c0,1.3.7,2,2,2h3.6v9.7h-10.6c-4,0-6-1.9-6-5.1v-1.3c0-1.1,0-2.1,0-2.1h-.2c-2.2,4.8-7.9,9.6-15.9,9.6s-15.9-5-15.9-17.5v-17.9Z"/>
      <path d="M226.6,12c0-1.3-.7-2-2-2h-3.9V0h11.6c4.3,0,6.1,1.9,6.1,6.1v45.9c0,1.3.7,2,2,2h14c1.3,0,2-.7,2-2v-3.9h10.7v9.7c0,4.3-1.8,6.1-6.1,6.1h-28.2c-4.3,0-6.1-1.8-6.1-6.1V12Z"/>
      <path d="M298.4,35.2h1.4v-.4c0-6.6-2.6-9-8.5-9s-6.1.5-6.1,3.1v2.4h-10.7v-4.9c0-8.6,12.1-9.5,16.9-9.5,15.3,0,19.9,8,19.9,18.3v17.1c0,1.3.7,2,2,2h3.6v9.7h-10.3c-4.2,0-5.9-2.3-5.9-5.1s0-2,0-2h-.2s-3.5,8.1-13.9,8.1-15.7-5.1-15.7-14.4c0-14.4,19.9-15.6,27.3-15.6ZM289.6,56.2c6.1,0,10.5-6.5,10.5-12.1v-1.1h-2c-6,0-15.4.8-15.4,7.2s2.3,6,6.9,6Z"/>
      <path d="M326.1,29.8c0-1.4-.7-2-2-2h-3.6v-9.7h10.6c4.1,0,6,1.9,6,5.1v1.4c0,1,0,2,0,2h.2c2.2-4.5,7.7-9.6,14.9-9.6s11.5,3.2,13.4,9.5h.2c2.4-5,8.4-9.5,15.7-9.5s15.1,5.4,15.1,17.5v18c0,1.3.7,2,2,2h3.5v9.7h-10.8c-4.3,0-6.1-1.8-6.1-6.1v-21.3c0-5.2-1-9.2-6.3-9.2s-9.7,4.8-11,10.6c-.5,1.8-.7,3.7-.7,5.9v20.2h-11.5v-27.4c0-5-.7-9.2-6.2-9.2s-9.7,4.8-11.1,10.7c-.5,1.8-.7,3.7-.7,5.8v20.2h-11.4V29.8Z"/>
      <path d="M434.1,35.2h1.4v-.4c0-6.6-2.6-9-8.5-9s-6.1.5-6.1,3.1v2.4h-10.7v-4.9c0-8.6,12.1-9.5,16.9-9.5,15.3,0,19.9,8,19.9,18.3v17.1c0,1.3.7,2,2,2h3.6v9.7h-10.3c-4.2,0-5.9-2.3-5.9-5.1s0-2,0-2h-.2s-3.5,8.1-13.9,8.1-15.7-5.1-15.7-14.4c0-14.4,19.9-15.6,27.3-15.6ZM425.2,56.2c6.1,0,10.5-6.5,10.5-12.1v-1.1h-2c-6,0-15.4.8-15.4,7.2s2.3,6,6.9,6Z"/>
    </g>
  </g>
</svg>